<svg width="200" height="200" viewBox="0 0 200 200" fill="none" xmlns="http://www.w3.org/2000/svg">
<path d="M0 100C0 44.7715 44.7715 0 100 0V0C155.228 0 200 44.7715 200 100V100C200 155.228 155.228 200 100 200V200C44.7715 200 0 155.228 0 100V100Z" fill="#9B72CF"/>
<g filter="url(#filter0_d_1_9)">
<path d="M69.8769 63.9604L40.9754 93.5749C36.3416 98.3231 36.3416 106.021 40.9753 110.769L69.8769 140.384M134.29 63.9604L163.191 93.5749C167.825 98.3231 167.825 106.021 163.191 110.769L134.29 140.384M94.7674 156.522L109.399 47.8261" stroke="#F4EFFA" stroke-width="15" stroke-linecap="round"/>
</g>
<defs>
<filter id="filter0_d_1_9" x="26" y="40.3252" width="152.167" height="131.697" filterUnits="userSpaceOnUse" color-interpolation-filters="sRGB">
<feFlood flood-opacity="0" result="BackgroundImageFix"/>
<feColorMatrix in="SourceAlpha" type="matrix" values="0 0 0 0 0 0 0 0 0 0 0 0 0 0 0 0 0 0 127 0" result="hardAlpha"/>
<feOffset dy="4"/>
<feGaussianBlur stdDeviation="2"/>
<feComposite in2="hardAlpha" operator="out"/>
<feColorMatrix type="matrix" values="0 0 0 0 0 0 0 0 0 0 0 0 0 0 0 0 0 0 0.25 0"/>
<feBlend mode="normal" in2="BackgroundImageFix" result="effect1_dropShadow_1_9"/>
<feBlend mode="normal" in="SourceGraphic" in2="effect1_dropShadow_1_9" result="shape"/>
</filter>
</defs>
</svg>
