<svg width="200" height="200" viewBox="0 0 200 200" fill="none" xmlns="http://www.w3.org/2000/svg">
<path d="M0 100C0 44.7715 44.7715 0 100 0V0C155.228 0 200 44.7715 200 100V100C200 155.228 155.228 200 100 200V200C44.7715 200 0 155.228 0 100V100Z" fill="#9B72CF"/>
<path d="M69.8769 63.9604L40.9754 93.5749C36.3416 98.3231 36.3416 106.021 40.9753 110.769L69.8769 140.384M134.29 63.9604L163.191 93.5749C167.825 98.3231 167.825 106.021 163.191 110.769L134.29 140.384M94.7674 156.522L109.399 47.8261" stroke="#F4EFFA" stroke-width="5" stroke-linecap="round"/>
</svg>
